<svg width="108" height="40" viewBox="0 0 108 40" fill="none" xmlns="http://www.w3.org/2000/svg">
<g clip-path="url(#clip0)">
<path d="M53.7597 6.09329C53.9996 6.09329 55.0807 6.22505 57.002 6.48858L57.4204 6.53505L57.8155 6.56996C58.1873 6.60872 58.4315 6.65134 58.5477 6.69782C59.0437 6.89934 59.2918 7.60077 59.2918 8.8021C59.2918 9.72439 59.0361 10.1855 58.5244 10.1855C58.3773 10.1855 58.0907 9.87553 57.6646 9.25548C57.2386 8.63543 56.8549 8.22082 56.5141 8.01153C55.7157 7.53101 54.6775 7.29072 53.3993 7.29072C52.6634 7.29072 51.9622 7.48448 51.2957 7.87201C49.2968 9.01134 48.2971 11.2009 48.2971 14.4406C48.2971 15.4094 48.448 16.3627 48.7503 17.3005C49.0602 18.2306 49.4944 18.9901 50.0523 19.5791C50.6097 20.1682 51.1986 20.5867 51.8189 20.8347C52.4387 21.075 53.2441 21.1951 54.2362 21.1951C55.2278 21.1951 55.9447 20.951 56.386 20.4627C56.8354 19.9744 57.0601 19.0599 57.0601 17.7191C57.0601 17.2075 56.9092 16.7812 56.6069 16.4402C56.5217 16.3394 56.3355 16.1961 56.049 16.0101C55.7624 15.8241 55.6191 15.6807 55.6191 15.5799C55.6191 15.2699 56.3746 15.1149 57.8855 15.1149C59.396 15.1149 60.1515 15.3048 60.1515 15.6845C60.1515 15.7698 60.0472 15.9635 59.8378 16.2658C59.6364 16.5603 59.5126 16.8393 59.466 17.1029C59.4193 17.3586 59.3846 17.8121 59.3613 18.4631C59.3379 19.1064 59.307 19.6761 59.2684 20.1721C59.2299 20.6681 59.0904 21.0285 58.85 21.2532C58.6177 21.4703 57.897 21.7571 56.6883 22.1136C55.4796 22.4701 54.3795 22.6483 53.3874 22.6483C52.3958 22.6406 51.4119 22.4507 50.4355 22.0787C48.4599 21.3114 47.0923 19.9202 46.333 17.9051C45.9301 16.8277 45.7287 15.7271 45.7287 14.6033V14.1151C45.7287 14.0995 45.7287 14.0802 45.7287 14.0569C45.7287 12.9873 45.9417 11.9255 46.3679 10.8715C47.197 8.80986 48.5647 7.41477 50.4703 6.6862C51.4933 6.29091 52.5896 6.09329 53.7597 6.09329ZM67.5549 21.23C67.9733 21.447 68.1828 21.6951 68.1828 21.9741C68.1828 22.2531 67.6091 22.3926 66.4623 22.3926H65.2303L64.7424 22.3693L64.0217 22.3577C63.0996 22.3577 62.6388 22.1988 62.6388 21.881C62.6388 21.7183 62.8249 21.5323 63.1967 21.323C63.5685 21.106 63.8127 20.827 63.9289 20.486C64.0526 20.145 64.115 18.9979 64.115 17.0447C64.115 15.0839 64.0569 13.9058 63.9403 13.5105C63.8241 13.1075 63.588 12.8013 63.2315 12.5921C62.883 12.3828 62.7083 12.1929 62.7083 12.0224C62.7083 11.9527 62.7668 11.8751 62.883 11.7899C63.3324 11.4566 64.1302 11.29 65.277 11.29C65.7421 11.29 66.0558 11.4605 66.2186 11.8015C66.4895 12.3673 66.6561 12.6502 66.718 12.6502C66.8884 12.6502 67.1055 12.5456 67.3692 12.3363C68.2056 11.6698 69.0658 11.3365 69.9489 11.3365C70.2745 11.3365 70.5649 11.4721 70.821 11.7434C71.0766 12.0069 71.2042 12.3092 71.2042 12.6502C71.2042 12.9835 71.1152 13.2509 70.9371 13.4524C70.7586 13.6461 70.5377 13.7431 70.2745 13.7431C70.0188 13.7431 69.7242 13.6345 69.3914 13.4175C69.0582 13.2005 68.7445 13.092 68.4498 13.092C67.76 13.092 67.2064 13.5996 66.788 14.615C66.5399 15.235 66.4162 16.2736 66.4162 17.7307C66.4162 19.1878 66.5014 20.083 66.6718 20.4162C66.8422 20.7417 67.1364 21.013 67.5549 21.23ZM78.1777 17.0099C77.1704 17.0099 76.353 17.254 75.7251 17.7423C75.0977 18.2306 74.784 18.7615 74.784 19.335V19.7303C74.7992 19.8233 74.8073 19.9008 74.8073 19.9628C74.8073 20.3348 74.9697 20.6487 75.2953 20.9045C75.6285 21.1602 75.9579 21.2881 76.283 21.2881H76.6548C77.1666 21.2881 77.7435 21.0634 78.3867 20.6139C78.8518 20.2883 79.0841 19.8775 79.0841 19.3815C79.0993 19.2885 79.1074 19.2188 79.1074 19.1722L79.1307 18.87V18.5096L79.1421 18.2887V17.4865C79.1421 17.1455 79.0412 16.975 78.8399 16.975H78.5495C78.41 16.9982 78.2858 17.0099 78.1777 17.0099ZM77.1894 11.0575H77.4803C79.0993 11.0575 80.2075 11.5496 80.804 12.534C81.1682 13.1385 81.3505 14.5413 81.3505 16.7425C81.3505 18.9436 81.3814 20.1488 81.4433 20.3581C81.5442 20.7069 81.7647 20.9394 82.106 21.0556C82.6634 21.2494 82.9424 21.3811 82.9424 21.4509V21.6253C82.9424 21.7803 82.7643 21.9624 82.4078 22.1717C82.0517 22.381 81.5247 22.4856 80.8273 22.4856C80.4246 22.4856 80.0604 22.3112 79.7348 21.9624C79.4092 21.6059 79.1964 21.4276 79.0955 21.4276C79.0879 21.4276 78.658 21.6253 77.8054 22.0206C76.9533 22.4158 76.283 22.6135 75.7951 22.6135H75.2486C74.505 22.6135 73.8771 22.3538 73.3659 21.8345C72.8622 21.3075 72.6104 20.7379 72.6104 20.1256V19.8349C72.6104 18.8583 72.9784 18.0756 73.7148 17.4865C74.2185 17.0835 74.9425 16.7502 75.8879 16.4867C75.9965 16.4557 76.4225 16.3627 77.1666 16.2077C77.9102 16.0449 78.3633 15.9248 78.5261 15.8473C78.9522 15.638 79.1655 15.1846 79.1655 14.4871C79.1655 13.7818 78.9755 13.2276 78.5961 12.8246C78.2162 12.4138 77.6969 12.2084 77.0385 12.2084C76.3802 12.2084 75.8065 12.5688 75.3186 13.2896C74.8302 14.0104 74.3227 14.3708 73.7962 14.3708C73.6796 14.3708 73.5325 14.2856 73.3545 14.1151C73.1759 13.9445 73.0869 13.6771 73.0869 13.3129C73.0869 12.7471 73.3892 12.286 73.9938 11.9294C74.9777 11.3481 76.0431 11.0575 77.1894 11.0575ZM94.1465 13.0339C94.1384 13.5686 94.026 13.9561 93.8094 14.1964C93.6542 14.367 93.48 14.4522 93.2862 14.4522C93.201 14.4522 93.112 14.4367 93.0187 14.4057C92.7088 14.305 92.4341 14.0337 92.1937 13.5919C91.6825 12.6773 90.9579 12.2201 90.0206 12.2201C89.0904 12.2201 88.374 12.6502 87.8703 13.5105C87.3743 14.3708 87.1263 15.483 87.1263 16.8471C87.1263 18.2034 87.4443 19.2846 88.0793 20.0907C88.7148 20.8967 89.625 21.2998 90.8108 21.2998C91.5082 21.2998 92.2247 21.0634 92.9606 20.5906C93.3867 20.3193 93.6928 20.1837 93.8789 20.1837C94.065 20.1837 94.1579 20.2612 94.1579 20.4162V20.6022C94.1579 20.9898 93.7509 21.4199 92.9373 21.8927C92.1318 22.3577 91.3026 22.5902 90.4505 22.5902H90.1829C88.5249 22.5902 87.2196 22.0787 86.2666 21.0556C85.3135 20.0326 84.837 18.6995 84.837 17.0564C84.837 15.4055 85.294 14.0414 86.2085 12.9641C86.6731 12.4138 87.2739 11.9721 88.0098 11.6388C88.7534 11.3055 89.5284 11.1389 90.3343 11.1389H90.6014C91.7867 11.1389 92.744 11.3636 93.4724 11.8131C93.9218 12.0922 94.1465 12.4991 94.1465 13.0339ZM99.2248 15.7891H99.5271L101.747 15.638C102.018 15.5993 102.216 15.5799 102.34 15.5799C102.851 15.5799 103.207 15.4791 103.409 15.2776C103.494 15.1924 103.537 14.9909 103.537 14.6731C103.537 13.9368 103.32 13.3284 102.886 12.8479C102.46 12.3596 101.944 12.1154 101.34 12.1154H101.108C100.411 12.1154 99.7866 12.4177 99.2367 13.0222C98.6945 13.6268 98.4232 14.3088 98.4232 15.0684L98.3999 15.2195V15.2892C98.3999 15.5915 98.5627 15.7427 98.8878 15.7427C99.043 15.7737 99.1553 15.7891 99.2248 15.7891ZM98.3304 17.7423C98.3304 18.8196 98.675 19.6683 99.3643 20.2883C100.054 20.9084 100.96 21.2184 102.084 21.2184C102.549 21.2184 103.161 21.044 103.921 20.6952C104.68 20.3464 105.071 20.1721 105.094 20.1721C105.365 20.1721 105.501 20.3 105.501 20.5557C105.501 21.0362 104.963 21.54 103.886 22.067C103.149 22.4236 102.363 22.6019 101.526 22.6019H101.259C99.6161 22.6019 98.3304 22.0903 97.4002 21.0672C96.4705 20.0364 96.0059 18.6956 96.0059 17.0447V16.7773C96.0059 16.7619 96.0059 16.7425 96.0059 16.7192C96.0059 16.0372 96.1415 15.3512 96.4124 14.6615C96.986 13.1811 97.8962 12.1619 99.1439 11.6039C99.9261 11.2551 100.643 11.0807 101.294 11.0807H101.805C102.82 11.0807 103.703 11.4062 104.455 12.0573C104.858 12.4061 105.172 12.8479 105.396 13.3826C105.621 13.9174 105.733 14.3902 105.733 14.801V15.0451C105.733 15.6341 105.493 16.0294 105.013 16.231C104.734 16.3472 103.719 16.4673 101.968 16.5913C100.225 16.7153 99.2444 16.8083 99.0273 16.8703C98.5627 17.0021 98.3304 17.2928 98.3304 17.7423ZM50.9001 30.931C50.9001 31.2441 50.8087 31.4007 50.6259 31.4007C50.545 31.4007 50.3531 31.2798 50.0494 31.038C49.7457 30.7961 49.4929 30.6287 49.2916 30.5357C49.0902 30.4396 48.8593 30.3916 48.5989 30.3916C48.5927 30.3916 48.588 30.3916 48.5851 30.3916C48.3338 30.3916 48.0939 30.4582 47.8644 30.5915C47.2197 30.9666 46.8974 31.7727 46.8974 33.0097C46.8974 33.3631 46.9532 33.7072 47.0648 34.042C47.3902 35.031 48.0129 35.5255 48.9336 35.5255C48.9365 35.5255 48.9398 35.5255 48.9426 35.5255C49.3644 35.5255 49.8014 35.3674 50.2537 35.0511C50.545 34.8496 50.7126 34.7489 50.7559 34.7489C50.9077 34.7489 50.9839 34.8202 50.9839 34.9628V35.079C50.9839 35.1504 50.9111 35.2945 50.7654 35.5115C50.6226 35.7285 50.4307 35.8929 50.1889 36.0045C49.7671 36.1998 49.2716 36.2974 48.7013 36.2974H48.5432C48.0877 36.2974 47.6692 36.2137 47.2879 36.0463C46.5286 35.7115 46.0017 35.1581 45.7073 34.3861C45.5492 33.9739 45.4702 33.5724 45.4702 33.1817V32.8562C45.4702 32.4687 45.5461 32.0734 45.698 31.6704C46.011 30.8364 46.5472 30.2551 47.3065 29.9265C47.7064 29.7529 48.1015 29.6661 48.4918 29.6661H48.6456C49.6248 29.6661 50.2722 29.7591 50.5888 29.9451C50.7963 30.066 50.9001 30.3947 50.9001 30.931ZM59.1613 33.205C58.7676 33.205 58.532 33.267 58.4544 33.391C58.402 33.4778 58.3754 33.7289 58.3754 34.1443C58.3754 34.5598 58.4001 34.8543 58.4501 35.0279C58.5025 35.1984 58.5939 35.3658 58.7243 35.5301C58.8576 35.6944 58.9242 35.8247 58.9242 35.9208C58.9242 36.0138 58.8033 36.082 58.5615 36.1254C58.323 36.1657 57.7679 36.1858 56.8973 36.1858C56.7173 36.1858 56.5983 36.1626 56.5393 36.1161C56.4836 36.0665 56.4555 35.9657 56.4555 35.8138C56.4555 35.758 56.5331 35.6665 56.6878 35.5394C56.8459 35.4092 56.9439 35.2775 56.9811 35.1441C57.0182 35.0109 57.0368 34.2777 57.0368 32.9446C57.0368 31.6084 57.0149 30.8736 56.9715 30.7403C56.9311 30.6039 56.8044 30.469 56.5902 30.3358C56.4446 30.2428 56.3717 30.1048 56.3717 29.9219L56.4788 29.8242C56.6059 29.756 57.1762 29.7219 58.1897 29.7219C58.6605 29.7219 58.8962 29.801 58.8962 29.9591C58.8962 30.0335 58.8405 30.187 58.7291 30.4195C58.6172 30.6489 58.5429 30.8349 58.5058 30.9775C58.4715 31.117 58.4544 31.427 58.4544 31.9076C58.4544 32.1494 58.512 32.3152 58.6267 32.4051C58.6948 32.4579 59.0556 32.4842 59.7097 32.4842C60.3666 32.4842 60.7451 32.4516 60.8441 32.3865C60.9431 32.3214 60.9926 32.1044 60.9926 31.7355C60.9926 31.3635 60.9698 31.0953 60.9231 30.931C60.8798 30.7636 60.796 30.5884 60.6723 30.4055C60.548 30.2226 60.4861 30.111 60.4861 30.0707C60.4861 29.9529 60.5947 29.8676 60.8117 29.8149C60.9293 29.787 61.2468 29.773 61.7643 29.773C62.2822 29.773 62.6074 29.7886 62.7407 29.8196C62.9144 29.8599 63.0011 29.9761 63.0011 30.1683C63.0011 30.2334 62.9192 30.342 62.7549 30.4939C62.5936 30.6427 62.5007 30.7481 62.476 30.8101C62.4198 30.9558 62.3922 31.5464 62.3922 32.5819L62.3784 33.7119L62.3736 33.9351V34.3861C62.3736 34.9535 62.4093 35.3023 62.4803 35.4325C62.5084 35.4852 62.6031 35.558 62.764 35.651C62.9282 35.741 63.0106 35.8665 63.0106 36.0277C63.0106 36.1641 62.7887 36.2323 62.3455 36.2323L62.1318 36.2277L61.69 36.223C61.0736 36.223 60.7123 36.1719 60.6071 36.0696L60.5514 35.9672C60.5514 35.8557 60.6161 35.6898 60.7465 35.4697C60.8765 35.2496 60.9617 35.0527 61.0022 34.8791C61.0455 34.7024 61.0674 34.4249 61.0674 34.0467C61.0674 33.6685 61.0098 33.4344 60.8951 33.3445C60.7837 33.2515 60.2057 33.205 59.1613 33.205ZM70.3511 33.3817V33.4282C70.3511 33.4654 70.4954 33.484 70.7834 33.484H71.318C71.7426 33.484 71.9549 33.4592 71.9549 33.4096C71.9549 33.2763 71.823 32.867 71.5598 32.1819C71.2965 31.4968 71.1599 31.1542 71.1509 31.1542C71.1447 31.1542 71.0095 31.4983 70.7462 32.1866C70.483 32.8717 70.3511 33.2701 70.3511 33.3817ZM71.267 29.7266H71.4017C71.6312 29.7266 71.8882 29.9715 72.1734 30.4613C72.2724 30.6318 72.4214 30.9852 72.6199 31.5216C72.818 32.0579 72.9884 32.5028 73.1312 32.8562C73.2735 33.2096 73.4287 33.6313 73.5958 34.1211C73.7662 34.6078 73.889 34.9318 73.9633 35.093C74.0409 35.2511 74.177 35.403 74.3722 35.5487C74.5674 35.6944 74.665 35.8216 74.665 35.93C74.665 36.0355 74.5988 36.1052 74.4655 36.1393C74.2485 36.192 73.7105 36.2184 72.8522 36.2184C72.4619 36.2184 72.2662 36.1347 72.2662 35.9672C72.2662 35.9239 72.2976 35.8185 72.3595 35.651C72.4214 35.4805 72.4524 35.355 72.4524 35.2744C72.4524 34.893 72.361 34.5722 72.1782 34.3118C72.1039 34.2063 71.8697 34.1537 71.476 34.1537C70.7538 34.1537 70.3449 34.1769 70.2488 34.2234C70.1559 34.2699 70.0598 34.3877 69.9608 34.5768C69.8646 34.766 69.8165 34.9411 69.8165 35.1023C69.8165 35.2635 69.8598 35.4371 69.9465 35.6231C70.0365 35.8091 70.0817 35.9549 70.0817 36.0603C70.0817 36.1905 69.9422 36.2556 69.6632 36.2556C68.9996 36.2556 68.5564 36.2246 68.3337 36.1626C68.1908 36.1223 68.1194 36.0215 68.1194 35.8603C68.1194 35.8386 68.2608 35.7038 68.5426 35.4557C68.6978 35.3193 68.8216 35.141 68.9144 34.921C69.5842 33.3243 70.0088 32.168 70.1883 31.4518C70.3711 30.7326 70.5263 30.266 70.6534 30.0521C70.7805 29.835 70.9847 29.7266 71.267 29.7266ZM81.8618 32.6981C81.8618 32.8748 81.8927 32.9957 81.9546 33.0608C82.0198 33.1228 82.1626 33.1538 82.3825 33.1538H82.6058C82.9248 33.1538 83.1852 33.0345 83.3865 32.7958C83.5879 32.557 83.6888 32.2191 83.6888 31.782L83.684 31.7355C83.684 31.2953 83.5693 30.9496 83.3403 30.6985C83.1109 30.4474 82.8195 30.3218 82.4663 30.3218H82.3497C82.0898 30.3218 81.936 30.3853 81.8898 30.5125C81.8741 30.5528 81.8665 30.7868 81.8665 31.2147V31.9215L81.8618 32.0982V32.6981ZM79.9605 35.958C79.9605 35.744 80.0519 35.5751 80.2347 35.4511C80.4175 35.324 80.5231 35.1829 80.5508 35.0279C80.5941 34.783 80.616 34.0839 80.616 32.9306C80.616 31.7773 80.5879 31.086 80.5322 30.8566C80.4765 30.624 80.3975 30.4644 80.2951 30.3776C80.0719 30.1916 79.9605 30.0707 79.9605 30.0149V29.9405C79.9605 29.8134 80.0766 29.7328 80.3089 29.6987C80.3741 29.6894 80.704 29.6847 81.2991 29.6847L81.9127 29.6754H82.0336L82.4011 29.6894H82.7729C83.8702 29.6894 84.6014 30.0288 84.9674 30.7078C85.1065 30.9682 85.1764 31.2441 85.1764 31.5355V31.6657C85.1764 32.1866 84.986 32.6268 84.6047 32.9864C84.2234 33.343 83.6855 33.5522 82.9914 33.6142C82.5825 33.6514 82.3516 33.6824 82.2988 33.7072C82.0912 33.8002 81.9874 34.1459 81.9874 34.7442C81.9874 35.0201 82.0836 35.2356 82.2754 35.3906C82.533 35.5983 82.6615 35.7735 82.6615 35.9161C82.6615 36.0277 82.542 36.1052 82.3035 36.1486C82.0679 36.192 81.7256 36.2137 81.2762 36.2137C80.3989 36.2137 79.9605 36.1285 79.9605 35.958ZM95.4084 30.5497C95.4084 30.7574 95.3794 30.8938 95.3204 30.9589C95.2613 31.0209 95.1714 31.0519 95.0509 31.0519L94.9671 31.01L94.8696 30.945L94.7577 30.8799C94.6492 30.8178 94.4402 30.7326 94.1303 30.6241C93.8232 30.5156 93.5366 30.4613 93.2701 30.4613C93.0035 30.4613 92.8083 30.5574 92.6845 30.7496C92.5636 30.9419 92.5032 31.3371 92.5032 31.9355C92.5032 32.106 92.556 32.2424 92.6612 32.3447C92.7664 32.447 92.9121 32.4981 93.0982 32.4981C93.2843 32.4981 93.4886 32.433 93.7118 32.3028C93.9379 32.1726 94.0979 32.1075 94.1907 32.1075C94.2869 32.1075 94.3702 32.171 94.4416 32.2982C94.513 32.4222 94.5487 32.571 94.5487 32.7446C94.5487 33.2127 94.4973 33.501 94.3954 33.6096L94.2697 33.6793C94.0869 33.6793 93.9413 33.6375 93.8327 33.5538C93.5942 33.3709 93.4191 33.2794 93.3072 33.2794C92.954 33.2794 92.7169 33.3538 92.596 33.5026C92.5374 33.577 92.5079 33.8328 92.5079 34.2699C92.5079 34.704 92.596 35.0341 92.7726 35.2604C92.8659 35.3813 93.0701 35.4418 93.3862 35.4418C93.7028 35.4418 94.1055 35.3348 94.5954 35.1209C95.0881 34.9039 95.3699 34.7954 95.4413 34.7954C95.5746 34.7954 95.6412 34.921 95.6412 35.172V35.3395C95.6412 35.4263 95.6103 35.5472 95.5479 35.7022C95.486 35.8572 95.3899 35.9781 95.2599 36.0649C95.1299 36.1517 94.9157 36.1951 94.6182 36.1951H91.2478C90.7337 36.1951 90.4762 36.1285 90.4762 35.9951V35.8463C90.4762 35.741 90.5709 35.6355 90.7599 35.5301C90.9522 35.4247 91.0636 35.3116 91.0946 35.1907C91.1288 35.0667 91.1455 34.3536 91.1455 33.0515C91.1455 31.7494 91.1241 31.0116 91.0808 30.838C91.0374 30.6644 90.9289 30.5047 90.7551 30.359C90.5819 30.2133 90.4947 30.0691 90.4947 29.9265C90.4947 29.8242 90.6066 29.7669 90.8294 29.7545C91.0527 29.739 91.7858 29.7312 93.0282 29.7312L94.2374 29.7266H94.4326C94.7453 29.7266 94.9652 29.7715 95.0923 29.8614C95.3032 30.0102 95.4084 30.2397 95.4084 30.5497ZM103.67 30.0102C103.67 30.0505 103.574 30.1792 103.382 30.3962C103.193 30.6101 103.079 30.7915 103.042 30.9403C103.008 31.0891 102.991 31.8006 102.991 33.0748C102.991 34.3459 103.008 35.048 103.042 35.1814C103.079 35.3147 103.156 35.4061 103.27 35.4557C103.384 35.5022 103.582 35.5255 103.861 35.5255C104.139 35.5255 104.383 35.4743 104.59 35.372C104.801 35.2697 105.027 35.0868 105.269 34.8233C105.511 34.5598 105.719 34.428 105.892 34.428C106.025 34.428 106.092 34.5117 106.092 34.6791V34.8C106.092 35.0326 106.055 35.2914 105.98 35.5766C105.906 35.8588 105.847 36.02 105.804 36.0603C105.708 36.1502 105.475 36.1951 105.106 36.1951H102.61C101.795 36.1951 101.344 36.1874 101.257 36.1719C101.109 36.144 101.034 36.0603 101.034 35.9208C101.034 35.8463 101.116 35.727 101.28 35.5627C101.445 35.3984 101.558 35.1845 101.62 34.921C101.645 34.8155 101.657 34.1211 101.657 32.8376C101.657 31.5541 101.638 30.8504 101.601 30.7264C101.564 30.6024 101.445 30.4768 101.243 30.3497C101.042 30.2226 100.941 30.08 100.941 29.9219C100.941 29.7948 101.243 29.7312 101.847 29.7312H103.079C103.321 29.7312 103.479 29.7498 103.553 29.787C103.631 29.8211 103.67 29.8955 103.67 30.0102Z" fill="#333333"/>
<path d="M13.9172 36.1905V29.5238C13.9172 28.6398 14.2837 27.7919 14.9362 27.1668C15.5887 26.5417 16.4737 26.1905 17.3965 26.1905C18.3192 26.1905 19.2042 26.5417 19.8567 27.1668C20.5092 27.7919 20.8757 28.6398 20.8757 29.5238V36.1905H27.8343V19.5238C27.8343 19.2362 27.7566 18.9535 27.6087 18.7032C27.4608 18.453 27.2479 18.2436 26.9906 18.0955L19.1361 13.5805V9.52382H22.6154V6.19048H19.1361V2.85715H15.6568V6.19048H12.1775V9.52382H15.6568V13.5805L7.8023 18.0955C7.545 18.2436 7.33206 18.453 7.18421 18.7032C7.0364 18.9535 6.95866 19.2362 6.95856 19.5238V36.1905H13.9172ZM1.73965 36.1905H5.21892V22.6605L0.962025 24.7005C0.672849 24.8385 0.429603 25.0511 0.259648 25.3143C0.0896935 25.5775 -0.000227199 25.881 4.31104e-07 26.1905V34.5238C4.31104e-07 34.9659 0.183284 35.3898 0.509529 35.7023C0.835779 36.0149 1.27826 36.1905 1.73965 36.1905ZM33.8309 24.6988L29.574 22.6605V36.1905H33.0533C33.5146 36.1905 33.9572 36.0149 34.2834 35.7023C34.6096 35.3898 34.7929 34.9659 34.7929 34.5238V26.1905C34.7929 25.5588 34.4206 24.9822 33.8309 24.6988Z" fill="#9893DA"/>
<mask id="mask0" mask-type="alpha" maskUnits="userSpaceOnUse" x="6" y="-8" width="24" height="52">
<path d="M29.0384 -7.14285V38.5714L6.18849 43.3333V2.61905L29.0384 -7.14285Z" fill="#C4C4C4"/>
</mask>
<g mask="url(#mask0)">
<path d="M13.9172 36.1905V29.5238C13.9172 28.6398 14.2837 27.7919 14.9362 27.1668C15.5887 26.5417 16.4737 26.1905 17.3965 26.1905C18.3192 26.1905 19.2042 26.5417 19.8567 27.1668C20.5092 27.7919 20.8757 28.6398 20.8757 29.5238V36.1905H27.8343V19.5238C27.8343 19.2362 27.7566 18.9535 27.6087 18.7032C27.4608 18.453 27.2479 18.2436 26.9906 18.0955L19.1361 13.5805V9.52382H22.6154V6.19048H19.1361V2.85715H15.6568V6.19048H12.1775V9.52382H15.6568V13.5805L7.8023 18.0955C7.545 18.2436 7.33206 18.453 7.18421 18.7032C7.0364 18.9535 6.95866 19.2362 6.95856 19.5238V36.1905H13.9172ZM1.73965 36.1905H5.21892V22.6605L0.962025 24.7005C0.672849 24.8385 0.429603 25.0511 0.259648 25.3143C0.0896935 25.5775 -0.000227199 25.881 4.31104e-07 26.1905V34.5238C4.31104e-07 34.9659 0.183284 35.3898 0.509529 35.7023C0.835779 36.0149 1.27826 36.1905 1.73965 36.1905ZM33.8309 24.6988L29.574 22.6605V36.1905H33.0533C33.5146 36.1905 33.9572 36.0149 34.2834 35.7023C34.6096 35.3898 34.7929 34.9659 34.7929 34.5238V26.1905C34.7929 25.5588 34.4206 24.9822 33.8309 24.6988Z" fill="#333333"/>
</g>
</g>
<defs>
<clipPath id="clip0">
<rect width="107.109" height="40" fill="white"/>
</clipPath>
</defs>
</svg>
