<svg width="225" height="84" viewBox="0 0 225 84" fill="none" xmlns="http://www.w3.org/2000/svg">
<path d="M112.931 12.7959C113.435 12.7959 115.706 13.0726 119.742 13.626L120.621 13.7236L121.451 13.7969C122.232 13.8783 122.745 13.9678 122.989 14.0654C124.031 14.4886 124.552 15.9616 124.552 18.4844C124.552 20.4212 124.015 21.3896 122.94 21.3896C122.631 21.3896 122.029 20.7386 121.134 19.4365C120.239 18.1344 119.433 17.2637 118.717 16.8242C117.04 15.8151 114.859 15.3105 112.174 15.3105C110.628 15.3105 109.155 15.7174 107.755 16.5312C103.556 18.9238 101.456 23.5218 101.456 30.3252C101.456 32.3597 101.773 34.3617 102.408 36.3311C103.059 38.2842 103.971 39.8792 105.143 41.1162C106.314 42.3532 107.551 43.2321 108.854 43.7529C110.156 44.2575 111.848 44.5098 113.932 44.5098C116.015 44.5098 117.521 43.9971 118.448 42.9717C119.392 41.9463 119.864 40.0257 119.864 37.21C119.864 36.1357 119.547 35.2406 118.912 34.5244C118.733 34.3128 118.342 34.0117 117.74 33.6211C117.138 33.2305 116.837 32.9294 116.837 32.7178C116.837 32.0667 118.424 31.7412 121.598 31.7412C124.771 31.7412 126.358 32.14 126.358 32.9375C126.358 33.1165 126.139 33.5234 125.699 34.1582C125.276 34.7767 125.016 35.3626 124.918 35.916C124.82 36.4531 124.747 37.4053 124.698 38.7725C124.649 40.1234 124.584 41.3197 124.503 42.3613C124.422 43.403 124.129 44.1598 123.624 44.6318C123.136 45.0876 121.622 45.6898 119.083 46.4385C116.544 47.1872 114.233 47.5615 112.149 47.5615C110.066 47.5452 107.999 47.1465 105.948 46.3652C101.798 44.7539 98.9251 41.8324 97.3301 37.6006C96.4837 35.3382 96.0605 33.027 96.0605 30.667V29.6416C96.0605 29.609 96.0605 29.5684 96.0605 29.5195C96.0605 27.2734 96.5081 25.0436 97.4033 22.8301C99.1449 18.5007 102.018 15.571 106.021 14.041C108.17 13.2109 110.473 12.7959 112.931 12.7959ZM141.91 44.583C142.789 45.0387 143.229 45.5596 143.229 46.1455C143.229 46.7314 142.024 47.0244 139.615 47.0244H137.027L136.002 46.9756L134.488 46.9512C132.551 46.9512 131.583 46.6175 131.583 45.9502C131.583 45.6084 131.974 45.2178 132.755 44.7783C133.536 44.3226 134.049 43.7367 134.293 43.0205C134.553 42.3044 134.684 39.8955 134.684 35.7939C134.684 31.6761 134.562 29.2021 134.317 28.3721C134.073 27.5257 133.577 26.8828 132.828 26.4434C132.096 26.0039 131.729 25.6051 131.729 25.2471C131.729 25.1006 131.852 24.9378 132.096 24.7588C133.04 24.0589 134.716 23.709 137.125 23.709C138.102 23.709 138.761 24.0671 139.103 24.7832C139.672 25.9714 140.022 26.5654 140.152 26.5654C140.51 26.5654 140.966 26.3457 141.52 25.9062C143.277 24.5065 145.084 23.8066 146.939 23.8066C147.623 23.8066 148.233 24.0915 148.771 24.6611C149.308 25.2145 149.576 25.8493 149.576 26.5654C149.576 27.2653 149.389 27.8268 149.015 28.25C148.64 28.6569 148.176 28.8604 147.623 28.8604C147.086 28.8604 146.467 28.6325 145.768 28.1768C145.068 27.721 144.409 27.4932 143.79 27.4932C142.341 27.4932 141.178 28.5592 140.299 30.6914C139.778 31.9935 139.518 34.1745 139.518 37.2344C139.518 40.2943 139.697 42.1742 140.055 42.874C140.413 43.5576 141.031 44.1273 141.91 44.583ZM164.225 35.7207C162.109 35.7207 160.392 36.2334 159.073 37.2588C157.755 38.2842 157.096 39.3991 157.096 40.6035V41.4336C157.128 41.6289 157.145 41.7917 157.145 41.9219C157.145 42.7031 157.486 43.3623 158.17 43.8994C158.87 44.4365 159.562 44.7051 160.245 44.7051H161.026C162.101 44.7051 163.313 44.2331 164.664 43.2891C165.641 42.6055 166.129 41.7428 166.129 40.7012C166.161 40.5059 166.178 40.3594 166.178 40.2617L166.227 39.627V38.8701L166.251 38.4062V36.7217C166.251 36.0055 166.039 35.6475 165.616 35.6475H165.006C164.713 35.6963 164.452 35.7207 164.225 35.7207ZM162.149 23.2207H162.76C166.161 23.2207 168.489 24.2542 169.742 26.3213C170.507 27.5908 170.89 30.5368 170.89 35.1592C170.89 39.7816 170.955 42.3125 171.085 42.752C171.297 43.4844 171.76 43.9727 172.477 44.2168C173.648 44.6237 174.234 44.9004 174.234 45.0469V45.4131C174.234 45.7386 173.86 46.1211 173.111 46.5605C172.363 47 171.256 47.2197 169.791 47.2197C168.945 47.2197 168.18 46.8535 167.496 46.1211C166.812 45.3724 166.365 44.998 166.153 44.998C166.137 44.998 165.234 45.4131 163.443 46.2432C161.653 47.0732 160.245 47.4883 159.22 47.4883H158.072C156.51 47.4883 155.191 46.943 154.117 45.8525C153.059 44.7458 152.53 43.5495 152.53 42.2637V41.6533C152.53 39.6025 153.303 37.9587 154.85 36.7217C155.908 35.8753 157.429 35.1755 159.415 34.6221C159.643 34.557 160.538 34.3617 162.101 34.0361C163.663 33.6943 164.615 33.4421 164.957 33.2793C165.852 32.8398 166.3 31.8877 166.3 30.4229C166.3 28.9417 165.901 27.778 165.104 26.9316C164.306 26.069 163.215 25.6377 161.832 25.6377C160.449 25.6377 159.244 26.3945 158.219 27.9082C157.193 29.4219 156.127 30.1787 155.021 30.1787C154.776 30.1787 154.467 29.9997 154.093 29.6416C153.718 29.2835 153.531 28.722 153.531 27.957C153.531 26.7689 154.166 25.8005 155.436 25.0518C157.503 23.8311 159.741 23.2207 162.149 23.2207ZM197.77 27.3711C197.753 28.4941 197.517 29.3079 197.062 29.8125C196.736 30.1706 196.37 30.3496 195.963 30.3496C195.784 30.3496 195.597 30.3171 195.401 30.252C194.75 30.0404 194.173 29.4707 193.668 28.543C192.594 26.6224 191.072 25.6621 189.103 25.6621C187.149 25.6621 185.644 26.5654 184.586 28.3721C183.544 30.1787 183.023 32.5143 183.023 35.3789C183.023 38.2272 183.691 40.4977 185.025 42.1904C186.36 43.8831 188.272 44.7295 190.763 44.7295C192.228 44.7295 193.733 44.2331 195.279 43.2402C196.174 42.6706 196.817 42.3857 197.208 42.3857C197.599 42.3857 197.794 42.5485 197.794 42.874V43.2646C197.794 44.0785 196.939 44.9818 195.23 45.9746C193.538 46.9512 191.796 47.4395 190.006 47.4395H189.444C185.961 47.4395 183.219 46.3652 181.217 44.2168C179.215 42.0684 178.214 39.2689 178.214 35.8184C178.214 32.3516 179.174 29.487 181.095 27.2246C182.071 26.069 183.333 25.1413 184.879 24.4414C186.441 23.7415 188.069 23.3916 189.762 23.3916H190.323C192.813 23.3916 194.824 23.8636 196.354 24.8076C197.298 25.3936 197.77 26.248 197.77 27.3711ZM208.438 33.1572H209.073L213.736 32.8398C214.306 32.7585 214.721 32.7178 214.981 32.7178C216.056 32.7178 216.804 32.5062 217.228 32.083C217.407 31.904 217.496 31.4808 217.496 30.8135C217.496 29.2673 217.04 27.9896 216.129 26.9805C215.234 25.9551 214.151 25.4424 212.882 25.4424H212.394C210.929 25.4424 209.618 26.0771 208.463 27.3467C207.324 28.6162 206.754 30.0485 206.754 31.6436L206.705 31.9609V32.1074C206.705 32.7422 207.047 33.0596 207.73 33.0596C208.056 33.1247 208.292 33.1572 208.438 33.1572ZM206.559 37.2588C206.559 39.5212 207.283 41.3034 208.731 42.6055C210.18 43.9076 212.084 44.5586 214.444 44.5586C215.421 44.5586 216.707 44.1924 218.302 43.46C219.897 42.7275 220.719 42.3613 220.768 42.3613C221.337 42.3613 221.622 42.6299 221.622 43.167C221.622 44.1761 220.491 45.234 218.229 46.3408C216.682 47.0895 215.03 47.4639 213.272 47.4639H212.711C209.26 47.4639 206.559 46.3896 204.605 44.2412C202.652 42.0765 201.676 39.2607 201.676 35.7939V35.2324C201.676 35.1999 201.676 35.1592 201.676 35.1104C201.676 33.6781 201.961 32.2376 202.53 30.7891C203.735 27.6803 205.647 25.54 208.268 24.3682C209.911 23.6357 211.417 23.2695 212.784 23.2695H213.858C215.991 23.2695 217.846 23.9531 219.425 25.3203C220.271 26.0527 220.93 26.9805 221.402 28.1035C221.874 29.2266 222.11 30.2194 222.11 31.082V31.5947C222.11 32.8317 221.606 33.6618 220.597 34.085C220.011 34.3291 217.879 34.5814 214.2 34.8418C210.538 35.1022 208.479 35.2975 208.023 35.4277C207.047 35.7044 206.559 36.3148 206.559 37.2588ZM106.924 64.9551C106.924 65.6126 106.732 65.9414 106.348 65.9414C106.178 65.9414 105.775 65.6875 105.137 65.1797C104.499 64.6719 103.968 64.3203 103.545 64.125C103.122 63.9232 102.637 63.8223 102.09 63.8223C102.077 63.8223 102.067 63.8223 102.061 63.8223C101.533 63.8223 101.029 63.9622 100.547 64.2422C99.1927 65.0299 98.5156 66.7227 98.5156 69.3203C98.5156 70.0625 98.6328 70.7852 98.8672 71.4883C99.5508 73.5651 100.859 74.6035 102.793 74.6035C102.799 74.6035 102.806 74.6035 102.812 74.6035C103.698 74.6035 104.616 74.2715 105.566 73.6074C106.178 73.1842 106.53 72.9727 106.621 72.9727C106.94 72.9727 107.1 73.1224 107.1 73.4219V73.666C107.1 73.8158 106.947 74.1185 106.641 74.5742C106.341 75.0299 105.938 75.375 105.43 75.6094C104.544 76.0195 103.503 76.2246 102.305 76.2246H101.973C101.016 76.2246 100.137 76.0488 99.3359 75.6973C97.7409 74.9941 96.6341 73.832 96.0156 72.2109C95.6836 71.3451 95.5176 70.502 95.5176 69.6816V68.998C95.5176 68.1842 95.6771 67.3542 95.9961 66.5078C96.6536 64.7565 97.7799 63.5358 99.375 62.8457C100.215 62.4811 101.045 62.2988 101.865 62.2988H102.188C104.245 62.2988 105.605 62.4941 106.27 62.8848C106.706 63.1387 106.924 63.8288 106.924 64.9551ZM124.278 69.7305C123.451 69.7305 122.956 69.8607 122.793 70.1211C122.683 70.3034 122.627 70.8307 122.627 71.7031C122.627 72.5755 122.679 73.194 122.784 73.5586C122.894 73.9167 123.086 74.2682 123.36 74.6133C123.64 74.9583 123.78 75.2318 123.78 75.4336C123.78 75.6289 123.526 75.7721 123.018 75.8633C122.517 75.9479 121.351 75.9902 119.522 75.9902C119.144 75.9902 118.894 75.9414 118.77 75.8438C118.653 75.7396 118.594 75.528 118.594 75.209C118.594 75.0918 118.757 74.8997 119.082 74.6328C119.414 74.3594 119.62 74.0827 119.698 73.8027C119.776 73.5228 119.815 71.9831 119.815 69.1836C119.815 66.3776 119.769 64.8346 119.678 64.5547C119.593 64.2682 119.327 63.985 118.877 63.7051C118.571 63.5098 118.418 63.2201 118.418 62.8359L118.643 62.6309C118.91 62.4876 120.108 62.416 122.237 62.416C123.226 62.416 123.721 62.582 123.721 62.9141C123.721 63.0703 123.604 63.3926 123.37 63.8809C123.135 64.3626 122.979 64.7533 122.901 65.0527C122.829 65.3457 122.793 65.9967 122.793 67.0059C122.793 67.5137 122.914 67.862 123.155 68.0508C123.298 68.1615 124.056 68.2168 125.43 68.2168C126.81 68.2168 127.605 68.1484 127.813 68.0117C128.021 67.875 128.125 67.4193 128.125 66.6445C128.125 65.8633 128.077 65.3001 127.979 64.9551C127.888 64.6035 127.712 64.2357 127.452 63.8516C127.191 63.4674 127.061 63.2331 127.061 63.1484C127.061 62.901 127.289 62.722 127.745 62.6113C127.992 62.5527 128.659 62.5234 129.746 62.5234C130.834 62.5234 131.517 62.556 131.797 62.6211C132.162 62.7057 132.344 62.9499 132.344 63.3535C132.344 63.4902 132.172 63.7181 131.827 64.0371C131.488 64.3496 131.293 64.571 131.241 64.7012C131.123 65.0072 131.065 66.2474 131.065 68.4219L131.036 70.7949L131.026 71.2637V72.2109C131.026 73.4023 131.101 74.1348 131.25 74.4082C131.309 74.5189 131.508 74.6719 131.846 74.8672C132.191 75.056 132.364 75.3197 132.364 75.6582C132.364 75.9447 131.898 76.0879 130.967 76.0879L130.518 76.0781L129.59 76.0684C128.295 76.0684 127.536 75.9609 127.315 75.7461L127.198 75.5312C127.198 75.2969 127.334 74.9486 127.608 74.4863C127.881 74.0241 128.06 73.6107 128.145 73.2461C128.236 72.875 128.282 72.2923 128.282 71.498C128.282 70.7038 128.161 70.2122 127.92 70.0234C127.686 69.8281 126.472 69.7305 124.278 69.7305ZM147.784 70.1016V70.1992C147.784 70.2773 148.087 70.3164 148.692 70.3164H149.815C150.707 70.3164 151.153 70.2643 151.153 70.1602C151.153 69.8802 150.876 69.0208 150.323 67.582C149.77 66.1432 149.483 65.4238 149.464 65.4238C149.451 65.4238 149.167 66.1465 148.614 67.5918C148.061 69.0306 147.784 69.8672 147.784 70.1016ZM149.708 62.4258H149.991C150.473 62.4258 151.013 62.9401 151.612 63.9688C151.82 64.3268 152.133 65.069 152.55 66.1953C152.966 67.3216 153.324 68.2559 153.624 68.998C153.923 69.7402 154.249 70.6257 154.6 71.6543C154.958 72.6764 155.216 73.3568 155.372 73.6953C155.535 74.0273 155.821 74.3464 156.231 74.6523C156.641 74.9583 156.846 75.2253 156.846 75.4531C156.846 75.6745 156.707 75.821 156.427 75.8926C155.971 76.0033 154.841 76.0586 153.038 76.0586C152.218 76.0586 151.807 75.8828 151.807 75.5312C151.807 75.4401 151.873 75.2188 152.003 74.8672C152.133 74.5091 152.198 74.2454 152.198 74.0762C152.198 73.2754 152.006 72.6016 151.622 72.0547C151.466 71.8333 150.974 71.7227 150.147 71.7227C148.63 71.7227 147.771 71.7715 147.569 71.8691C147.374 71.9668 147.172 72.2142 146.964 72.6113C146.762 73.0085 146.661 73.3763 146.661 73.7148C146.661 74.0534 146.752 74.418 146.934 74.8086C147.123 75.1992 147.218 75.5052 147.218 75.7266C147.218 76 146.925 76.1367 146.339 76.1367C144.945 76.1367 144.014 76.0716 143.546 75.9414C143.246 75.8568 143.096 75.6452 143.096 75.3066C143.096 75.2611 143.393 74.9779 143.985 74.457C144.311 74.1706 144.571 73.7962 144.766 73.334C146.173 69.9811 147.065 67.5527 147.442 66.0488C147.826 64.5384 148.152 63.5586 148.419 63.1094C148.686 62.6536 149.115 62.4258 149.708 62.4258ZM171.964 68.666C171.964 69.0371 172.029 69.291 172.159 69.4277C172.296 69.5579 172.596 69.623 173.058 69.623H173.527C174.197 69.623 174.744 69.3724 175.167 68.8711C175.59 68.3698 175.802 67.6602 175.802 66.7422L175.792 66.6445C175.792 65.7201 175.551 64.9941 175.07 64.4668C174.588 63.9395 173.976 63.6758 173.234 63.6758H172.989C172.443 63.6758 172.12 63.8092 172.023 64.0762C171.99 64.1608 171.974 64.6523 171.974 65.5508V67.0352L171.964 67.4062V68.666ZM167.97 75.5117C167.97 75.0625 168.162 74.7077 168.546 74.4473C168.93 74.1803 169.152 73.8841 169.21 73.5586C169.301 73.0443 169.347 71.5762 169.347 69.1543C169.347 66.7324 169.288 65.2806 169.171 64.7988C169.054 64.3105 168.888 63.9753 168.673 63.793C168.204 63.4023 167.97 63.1484 167.97 63.0312V62.875C167.97 62.6081 168.214 62.4388 168.702 62.3672C168.839 62.3477 169.532 62.3379 170.782 62.3379L172.071 62.3184H172.325L173.097 62.3477H173.878C176.183 62.3477 177.719 63.0605 178.488 64.4863C178.78 65.0332 178.927 65.6126 178.927 66.2246V66.498C178.927 67.5918 178.527 68.5163 177.726 69.2715C176.925 70.0202 175.795 70.4596 174.337 70.5898C173.478 70.668 172.993 70.7331 172.882 70.7852C172.446 70.9805 172.228 71.7064 172.228 72.9629C172.228 73.5423 172.43 73.9948 172.833 74.3203C173.374 74.7565 173.644 75.1243 173.644 75.4238C173.644 75.6582 173.393 75.821 172.892 75.9121C172.397 76.0033 171.678 76.0488 170.734 76.0488C168.891 76.0488 167.97 75.8698 167.97 75.5117ZM200.421 64.1543C200.421 64.5905 200.36 64.877 200.236 65.0137C200.112 65.1439 199.923 65.209 199.67 65.209L199.494 65.1211L199.289 64.9844L199.054 64.8477C198.826 64.7174 198.387 64.5384 197.736 64.3105C197.091 64.0827 196.489 63.9688 195.929 63.9688C195.369 63.9688 194.959 64.1706 194.699 64.5742C194.445 64.9779 194.318 65.8079 194.318 67.0645C194.318 67.4225 194.429 67.709 194.65 67.9238C194.871 68.1387 195.177 68.2461 195.568 68.2461C195.959 68.2461 196.388 68.1094 196.857 67.8359C197.332 67.5625 197.668 67.4258 197.863 67.4258C198.065 67.4258 198.24 67.5592 198.39 67.8262C198.54 68.0866 198.615 68.3991 198.615 68.7637C198.615 69.7467 198.507 70.3522 198.293 70.5801L198.029 70.7266C197.645 70.7266 197.339 70.6387 197.111 70.4629C196.61 70.0788 196.242 69.8867 196.007 69.8867C195.265 69.8867 194.767 70.043 194.513 70.3555C194.39 70.5117 194.328 71.0488 194.328 71.9668C194.328 72.8783 194.513 73.5716 194.884 74.0469C195.08 74.3008 195.509 74.4277 196.173 74.4277C196.838 74.4277 197.684 74.2031 198.713 73.7539C199.748 73.2982 200.34 73.0703 200.49 73.0703C200.77 73.0703 200.91 73.334 200.91 73.8613V74.2129C200.91 74.3952 200.845 74.6491 200.714 74.9746C200.584 75.3001 200.382 75.554 200.109 75.7363C199.836 75.9186 199.386 76.0098 198.761 76.0098H191.681C190.601 76.0098 190.06 75.8698 190.06 75.5898V75.2773C190.06 75.056 190.259 74.8346 190.656 74.6133C191.06 74.3919 191.294 74.1543 191.359 73.9004C191.431 73.64 191.466 72.1426 191.466 69.4082C191.466 66.6738 191.421 65.1243 191.33 64.7598C191.239 64.3952 191.011 64.0599 190.646 63.7539C190.282 63.4479 190.099 63.1452 190.099 62.8457C190.099 62.6309 190.334 62.5104 190.802 62.4844C191.271 62.4518 192.811 62.4355 195.421 62.4355L197.961 62.4258H198.371C199.028 62.4258 199.49 62.5202 199.757 62.709C200.2 63.0215 200.421 63.5033 200.421 64.1543ZM217.775 63.0215C217.775 63.1061 217.574 63.3763 217.17 63.832C216.773 64.2812 216.535 64.6621 216.457 64.9746C216.385 65.2871 216.35 66.7812 216.35 69.457C216.35 72.1263 216.385 73.6009 216.457 73.8809C216.535 74.1608 216.695 74.3529 216.936 74.457C217.176 74.5547 217.59 74.6035 218.176 74.6035C218.762 74.6035 219.273 74.4961 219.709 74.2812C220.152 74.0664 220.627 73.6823 221.135 73.1289C221.643 72.5755 222.079 72.2988 222.443 72.2988C222.723 72.2988 222.863 72.4746 222.863 72.8262V73.0801C222.863 73.5684 222.785 74.112 222.629 74.7109C222.473 75.3034 222.349 75.6419 222.258 75.7266C222.056 75.9154 221.568 76.0098 220.793 76.0098H215.549C213.837 76.0098 212.889 75.9935 212.707 75.9609C212.395 75.9023 212.238 75.7266 212.238 75.4336C212.238 75.2773 212.411 75.0267 212.756 74.6816C213.101 74.3366 213.339 73.8874 213.469 73.334C213.521 73.1126 213.547 71.6543 213.547 68.959C213.547 66.2637 213.508 64.7858 213.43 64.5254C213.352 64.265 213.101 64.0013 212.678 63.7344C212.255 63.4674 212.043 63.168 212.043 62.8359C212.043 62.569 212.678 62.4355 213.947 62.4355H216.535C217.043 62.4355 217.375 62.4746 217.531 62.5527C217.694 62.6243 217.775 62.7806 217.775 63.0215Z" fill="#333333"/>
<path d="M29.2353 76V62C29.2353 60.1435 30.0053 58.363 31.376 57.0503C32.7467 55.7375 34.6057 55 36.5441 55C38.4825 55 40.3416 55.7375 41.7122 57.0503C43.0829 58.363 43.8529 60.1435 43.8529 62V76H58.4706V41C58.4705 40.3961 58.3072 39.8024 57.9966 39.2768C57.686 38.7512 57.2387 38.3115 56.6982 38.0005L40.1985 28.519V20H47.5074V13H40.1985V6H32.8897V13H25.5809V20H32.8897V28.519L16.39 38.0005C15.8495 38.3115 15.4022 38.7512 15.0916 39.2768C14.7811 39.8024 14.6178 40.3961 14.6176 41V76H29.2353ZM3.65441 76H10.9632V47.587L2.02089 51.871C1.41343 52.1608 0.902451 52.6072 0.545433 53.16C0.188416 53.7128 -0.000477268 54.35 9.05605e-07 55V72.5C9.05605e-07 73.4283 0.385018 74.3185 1.07035 74.9749C1.75569 75.6313 2.6852 76 3.65441 76ZM71.0673 51.8675L62.125 47.587V76H69.4338C70.403 76 71.3326 75.6313 72.0179 74.9749C72.7032 74.3185 73.0882 73.4283 73.0882 72.5V55C73.0882 53.6735 72.3062 52.4625 71.0673 51.8675Z" fill="#666666"/>
<mask id="mask0" mask-type="alpha" maskUnits="userSpaceOnUse" x="13" y="-15" width="48" height="106">
<path d="M61 -15V81L13 91V5.5L61 -15Z" fill="#C4C4C4"/>
</mask>
<g mask="url(#mask0)">
<path d="M29.2353 76V62C29.2353 60.1435 30.0053 58.363 31.376 57.0503C32.7467 55.7375 34.6057 55 36.5441 55C38.4825 55 40.3416 55.7375 41.7122 57.0503C43.0829 58.363 43.8529 60.1435 43.8529 62V76H58.4706V41C58.4705 40.3961 58.3072 39.8024 57.9966 39.2768C57.686 38.7512 57.2387 38.3115 56.6982 38.0005L40.1985 28.519V20H47.5074V13H40.1985V6H32.8897V13H25.5809V20H32.8897V28.519L16.39 38.0005C15.8495 38.3115 15.4022 38.7512 15.0916 39.2768C14.7811 39.8024 14.6178 40.3961 14.6176 41V76H29.2353ZM3.65441 76H10.9632V47.587L2.02089 51.871C1.41343 52.1608 0.902451 52.6072 0.545433 53.16C0.188416 53.7128 -0.000477268 54.35 9.05605e-07 55V72.5C9.05605e-07 73.4283 0.385018 74.3185 1.07035 74.9749C1.75569 75.6313 2.6852 76 3.65441 76ZM71.0673 51.8675L62.125 47.587V76H69.4338C70.403 76 71.3326 75.6313 72.0179 74.9749C72.7032 74.3185 73.0882 73.4283 73.0882 72.5V55C73.0882 53.6735 72.3062 52.4625 71.0673 51.8675Z" fill="#333333"/>
</g>
</svg>
